<svg width="79" height="53" viewBox="0 0 79 53" fill="none" xmlns="http://www.w3.org/2000/svg">
<path d="M75.5886 3.13452H1V52H75.5886V3.13452Z" stroke="url(#paint0_linear_422_1854)" stroke-linecap="square"/>
<path d="M78.4428 1H4.25812V49.6009H78.4428V1Z" stroke="url(#paint1_linear_422_1854)" stroke-linecap="square"/>
<path d="M41.9808 11.9022L42.2767 12.6445C42.2951 12.7032 42.278 12.7652 42.229 12.8168C42.1801 12.8685 42.1034 12.9055 42.0157 12.9199L33.6115 14.2895C33.568 14.2966 33.5232 14.2979 33.4796 14.2934C33.4359 14.2888 33.3943 14.2785 33.3571 14.2629C33.3199 14.2474 33.2879 14.2269 33.2628 14.2028C33.2378 14.1786 33.2202 14.1512 33.2111 14.1221L32.5123 11.9654L28.6336 11.9759L31.8417 23.1763L33.0863 23.1701L34.91 23.1633L36.076 23.2016C36.0668 23.1725 36.0662 23.1423 36.0743 23.1127C36.0824 23.0831 36.0991 23.0547 36.1233 23.0291C36.1476 23.0035 36.1789 22.9813 36.2156 22.9636C36.2522 22.9459 36.2935 22.9332 36.337 22.9262L44.7415 21.5563C44.8291 21.5423 44.9204 21.552 44.9954 21.5833C45.0704 21.6147 45.123 21.6651 45.1418 21.7237L45.5829 23.2048L46.6013 23.2226C46.5187 23.2358 48.5411 23.2078 48.5411 23.2078L49.6925 23.2058C47.9321 17.9055 48.1531 18.3475 46.0746 12.0392L41.9808 11.9022ZM29.9531 13.261L29.6887 12.4222C29.6802 12.3958 29.6796 12.3684 29.687 12.3415C29.6943 12.3147 29.7094 12.2889 29.7314 12.2657C29.7534 12.2424 29.7818 12.2223 29.8151 12.2063C29.8484 12.1903 29.8859 12.1788 29.9254 12.1724L31.1788 11.9677C31.2183 11.9612 31.259 11.96 31.2987 11.9641C31.3384 11.9683 31.3762 11.9777 31.4101 11.9918C31.4439 12.006 31.473 12.0246 31.4958 12.0465C31.5186 12.0685 31.5347 12.0934 31.5429 12.1199L31.8075 12.9592C31.8241 13.0124 31.8085 13.0686 31.7642 13.1154C31.7198 13.1622 31.6503 13.1958 31.5708 13.2089L30.3173 13.4133C30.2376 13.4261 30.1545 13.4173 30.0863 13.3888C30.0181 13.3602 29.9702 13.3143 29.9531 13.261ZM30.7422 15.7604L30.4774 14.9214C30.4689 14.895 30.4684 14.8676 30.4757 14.8407C30.483 14.8138 30.4981 14.788 30.5202 14.7648C30.5422 14.7415 30.5707 14.7213 30.604 14.7053C30.6373 14.6893 30.6748 14.6777 30.7143 14.6714L31.9673 14.4676C32.0068 14.461 32.0476 14.4597 32.0873 14.4638C32.127 14.468 32.1648 14.4773 32.1986 14.4915C32.2325 14.5056 32.2616 14.5242 32.2843 14.5462C32.3071 14.5682 32.323 14.5932 32.3311 14.6197L32.5964 15.4582C32.6049 15.4846 32.6055 15.512 32.5981 15.5389C32.5908 15.5658 32.5757 15.5916 32.5537 15.6148C32.5316 15.638 32.5031 15.6583 32.4698 15.6743C32.4365 15.6903 32.399 15.7018 32.3595 15.7082L31.106 15.9125C31.0665 15.9189 31.0258 15.9201 30.9862 15.916C30.9466 15.9118 30.9088 15.9024 30.875 15.8883C30.8412 15.8741 30.8121 15.8556 30.7893 15.8337C30.7665 15.8117 30.7505 15.7868 30.7422 15.7604ZM31.5282 18.2512L31.2639 17.4127C31.2555 17.3863 31.255 17.3588 31.2624 17.3319C31.2698 17.3049 31.285 17.2791 31.307 17.2558C31.3291 17.2326 31.3576 17.2123 31.3909 17.1963C31.4243 17.1802 31.4618 17.1686 31.5013 17.1622L32.7536 16.958C32.7931 16.9516 32.8339 16.9504 32.8736 16.9545C32.9134 16.9587 32.9513 16.9681 32.9851 16.9823C33.019 16.9964 33.0482 17.015 33.071 17.037C33.0938 17.059 33.1098 17.084 33.1182 17.1104L33.3827 17.9486C33.3911 17.9751 33.3916 18.0026 33.3842 18.0295C33.3768 18.0564 33.3616 18.0822 33.3396 18.1055C33.3175 18.1288 33.289 18.149 33.2557 18.1651C33.2223 18.1812 33.1848 18.1927 33.1453 18.1992L31.8928 18.4036C31.8532 18.41 31.8124 18.4112 31.7727 18.4071C31.733 18.4029 31.6951 18.3935 31.6612 18.3793C31.6274 18.3652 31.5982 18.3466 31.5754 18.3246C31.5525 18.3026 31.5365 18.2776 31.5282 18.2512ZM34.6931 22.1013L34.9574 22.9397C34.9658 22.9662 34.9663 22.9936 34.9589 23.0206C34.9515 23.0475 34.932 23.14 34.91 23.1633C34.9495 23.1569 34.9896 23.1704 34.91 23.1633L33.0863 23.1701L32.8379 22.4035C32.8211 22.35 32.8366 22.2936 32.8811 22.2467C32.9257 22.1997 32.9955 22.166 33.0753 22.1529L34.3286 21.9489C34.4084 21.9359 34.4916 21.9446 34.56 21.9732C34.6283 22.0018 34.6762 22.0478 34.6931 22.1013ZM32.3166 20.7507L32.0524 19.9122C32.044 19.8858 32.0435 19.8583 32.0509 19.8314C32.0583 19.8044 32.0734 19.7786 32.0955 19.7553C32.1175 19.7321 32.146 19.7118 32.1794 19.6958C32.2127 19.6797 32.2502 19.6681 32.2898 19.6617L33.5423 19.4573C33.7083 19.4307 33.8712 19.4987 33.9069 19.6097L34.1711 20.4481C34.1795 20.4746 34.18 20.5021 34.1726 20.529C34.1652 20.5559 34.1501 20.5817 34.128 20.605C34.106 20.6283 34.0774 20.6485 34.0441 20.6646C34.0108 20.6807 33.9732 20.6922 33.9337 20.6987L32.6812 20.9031C32.6417 20.9095 32.6009 20.9107 32.5611 20.9066C32.5214 20.9024 32.4835 20.893 32.4497 20.8788C32.4158 20.8647 32.3866 20.8461 32.3638 20.8241C32.341 20.8021 32.3249 20.7771 32.3166 20.7507ZM35.9184 21.5989C35.875 21.606 35.8301 21.6073 35.7865 21.6028C35.7428 21.5982 35.7011 21.5878 35.6639 21.5723C35.6267 21.5567 35.5946 21.5362 35.5695 21.5121C35.5444 21.4879 35.5268 21.4605 35.5177 21.4313L33.7415 15.8061C33.7231 15.7474 33.7402 15.6854 33.7891 15.6338C33.8381 15.5821 33.9148 15.5451 34.0025 15.5307C37.72 14.9489 39.3909 14.6669 42.4076 14.1607C42.4953 14.1465 42.5868 14.1562 42.6619 14.1876C42.7371 14.219 42.7897 14.2696 42.8083 14.3283L44.5833 19.9537C44.6017 20.0125 44.5846 20.0744 44.5356 20.1261C44.4867 20.1777 44.41 20.2147 44.3223 20.2291L35.9184 21.5989ZM48.3146 22.5085L48.5411 23.2078L46.6013 23.2226L46.4597 22.8109C46.4431 22.7575 46.4588 22.7013 46.5032 22.6544C46.5476 22.6075 46.6173 22.5738 46.6969 22.5606L47.9504 22.3563C48.1165 22.3297 48.2793 22.3977 48.3146 22.5085ZM47.5258 20.0089L47.7895 20.8478C47.798 20.8742 47.7986 20.9017 47.7912 20.9286C47.7839 20.9555 47.7688 20.9813 47.7468 21.0045C47.7247 21.0277 47.6963 21.0479 47.6629 21.064C47.6296 21.08 47.5921 21.0915 47.5526 21.0978L46.2999 21.3025C46.2604 21.309 46.2197 21.3103 46.18 21.3062C46.1403 21.302 46.1025 21.2926 46.0687 21.2785C46.0348 21.2644 46.0057 21.2458 45.983 21.2238C45.9602 21.2018 45.9443 21.1769 45.9361 21.1504L45.6709 20.3112C45.6543 20.2579 45.6699 20.2017 45.7143 20.1549C45.7587 20.108 45.8283 20.0744 45.9078 20.0612L47.162 19.8568C47.2416 19.844 47.3246 19.8528 47.3927 19.8812C47.4609 19.9097 47.5087 19.9556 47.5258 20.0089ZM46.7398 17.5181L47.004 18.3566C47.0125 18.383 47.0132 18.4105 47.0058 18.4374C46.9985 18.4643 46.9834 18.4902 46.9613 18.5134C46.9393 18.5367 46.9107 18.5569 46.8774 18.573C46.844 18.589 46.8064 18.6005 46.7669 18.6069L45.5141 18.8115C45.4344 18.8244 45.3513 18.8157 45.283 18.7871C45.2147 18.7586 45.1669 18.7126 45.1499 18.6593L44.8855 17.8204C44.8771 17.794 44.8766 17.7665 44.884 17.7396C44.8914 17.7127 44.9065 17.6869 44.9285 17.6637C44.9506 17.6404 44.9791 17.6202 45.0124 17.6042C45.0457 17.5881 45.0832 17.5765 45.1227 17.5701L46.3756 17.3659C46.4553 17.353 46.5384 17.3618 46.6067 17.3903C46.6749 17.4188 46.7228 17.4648 46.7398 17.5181ZM45.95 15.0188L46.2157 15.8575C46.2323 15.9109 46.2167 15.9671 46.1722 16.014C46.1278 16.0609 46.0582 16.0946 45.9785 16.1078L44.7249 16.3117C44.6854 16.3182 44.6446 16.3194 44.6049 16.3152C44.5653 16.3111 44.5274 16.3017 44.4936 16.2875C44.4597 16.2734 44.4306 16.2548 44.4078 16.2328C44.385 16.2108 44.369 16.1859 44.3607 16.1595L44.0964 15.321C44.0879 15.2946 44.0873 15.2671 44.0946 15.2402C44.102 15.2133 44.1171 15.1874 44.1391 15.1642C44.1612 15.1409 44.1897 15.1207 44.2231 15.1046C44.2565 15.0886 44.294 15.0771 44.3336 15.0707L45.5859 14.8666C45.6656 14.8537 45.7487 14.8625 45.817 14.891C45.8852 14.9195 45.9331 14.9655 45.95 15.0188ZM45.1643 12.5279L45.4292 13.3662C45.4376 13.3926 45.4381 13.4201 45.4307 13.447C45.4233 13.4739 45.4082 13.4997 45.3862 13.5229C45.3641 13.5462 45.3356 13.5664 45.3023 13.5824C45.269 13.5985 45.2315 13.6101 45.192 13.6165L43.9386 13.8212C43.8991 13.8277 43.8583 13.8289 43.8186 13.8247C43.7788 13.8206 43.741 13.8111 43.7071 13.797C43.6732 13.7828 43.6441 13.7642 43.6212 13.7422C43.5984 13.7203 43.5824 13.6953 43.5741 13.6688L43.3095 12.8295C43.293 12.7762 43.3086 12.7199 43.353 12.673C43.3975 12.6261 43.4671 12.5924 43.5467 12.5793L44.7997 12.3755C44.8393 12.3689 44.8801 12.3676 44.9199 12.3718C44.9596 12.3759 44.9976 12.3853 45.0314 12.3995C45.0653 12.4136 45.0945 12.4323 45.1173 12.4543C45.1401 12.4763 45.1561 12.5013 45.1643 12.5279Z" fill="url(#paint2_linear_422_1854)"/>
<path d="M13.72 36.12C13.3067 36.12 12.9233 36.0533 12.57 35.92C12.2167 35.7867 11.9333 35.57 11.72 35.27C11.5133 34.97 11.41 34.5667 11.41 34.06C11.41 34.0267 11.41 33.99 11.41 33.95C11.4167 33.9033 11.42 33.8733 11.42 33.86H12.33C12.33 33.8667 12.3267 33.8967 12.32 33.95C12.32 33.9967 12.32 34.0367 12.32 34.07C12.32 34.49 12.45 34.8033 12.71 35.01C12.97 35.21 13.2933 35.31 13.68 35.31C14.14 35.31 14.4933 35.2133 14.74 35.02C14.9933 34.82 15.12 34.5367 15.12 34.17C15.12 33.9233 15.0533 33.7233 14.92 33.57C14.7933 33.4167 14.6233 33.29 14.41 33.19C14.2033 33.09 13.9733 33 13.72 32.92C13.4667 32.84 13.21 32.7533 12.95 32.66C12.6967 32.5667 12.4633 32.4467 12.25 32.3C12.0433 32.1533 11.8733 31.9667 11.74 31.74C11.6133 31.5067 11.55 31.2133 11.55 30.86C11.55 30.44 11.6467 30.0933 11.84 29.82C12.04 29.5467 12.3033 29.3467 12.63 29.22C12.9633 29.0867 13.33 29.02 13.73 29.02C14.13 29.02 14.49 29.0867 14.81 29.22C15.1367 29.3467 15.3967 29.5533 15.59 29.84C15.7833 30.12 15.88 30.49 15.88 30.95V31.07H14.97V30.92C14.97 30.5667 14.8533 30.2967 14.62 30.11C14.3867 29.9233 14.0967 29.83 13.75 29.83C13.39 29.83 13.0867 29.9067 12.84 30.06C12.6 30.2133 12.48 30.4567 12.48 30.79C12.48 31.0233 12.5433 31.2133 12.67 31.36C12.8033 31.5067 12.9733 31.63 13.18 31.73C13.3933 31.8233 13.6267 31.91 13.88 31.99C14.1333 32.07 14.3867 32.1567 14.64 32.25C14.8933 32.3433 15.1233 32.4633 15.33 32.61C15.5433 32.7567 15.7133 32.9433 15.84 33.17C15.9733 33.39 16.04 33.6733 16.04 34.02C16.04 34.5333 15.9367 34.9433 15.73 35.25C15.53 35.5567 15.2567 35.78 14.91 35.92C14.5633 36.0533 14.1667 36.12 13.72 36.12ZM21.1687 37.24L19.9788 36.12H19.8587C19.0187 36.12 18.3587 35.8267 17.8787 35.24C17.3987 34.6467 17.1587 33.7567 17.1587 32.57C17.1587 31.3767 17.3987 30.4867 17.8787 29.9C18.3587 29.3133 19.0187 29.02 19.8587 29.02C20.6987 29.02 21.3588 29.3133 21.8388 29.9C22.3188 30.4867 22.5588 31.3767 22.5588 32.57C22.5588 33.4767 22.4154 34.21 22.1287 34.77C21.8421 35.33 21.4421 35.7167 20.9288 35.93L22.3487 37.24H21.1687ZM19.8587 35.31C20.4121 35.31 20.8454 35.1033 21.1588 34.69C21.4787 34.2767 21.6387 33.6533 21.6387 32.82V32.32C21.6387 31.4867 21.4787 30.8633 21.1588 30.45C20.8454 30.0367 20.4121 29.83 19.8587 29.83C19.3121 29.83 18.8787 30.0367 18.5587 30.45C18.2387 30.8633 18.0787 31.4867 18.0787 32.32V32.82C18.0787 33.6533 18.2387 34.2767 18.5587 34.69C18.8787 35.1033 19.3121 35.31 19.8587 35.31ZM26.2057 36.12C25.499 36.12 24.9457 35.92 24.5457 35.52C24.1457 35.12 23.9457 34.5367 23.9457 33.77V29.14H24.8257V33.82C24.8257 34.3067 24.949 34.6767 25.1957 34.93C25.4424 35.1833 25.779 35.31 26.2057 35.31C26.639 35.31 26.9757 35.1833 27.2157 34.93C27.4624 34.6767 27.5857 34.3067 27.5857 33.82V29.14H28.4657V33.77C28.4657 34.5367 28.2657 35.12 27.8657 35.52C27.4657 35.92 26.9124 36.12 26.2057 36.12ZM29.3537 36L31.5337 29.14H32.6637L34.8437 36H33.8937L33.4237 34.47H30.7037L30.2337 36H29.3537ZM30.9437 33.67H33.1737L32.2437 30.62C32.2237 30.54 32.2003 30.44 32.1737 30.32C32.147 30.2 32.1237 30.0933 32.1037 30C32.0903 29.9067 32.0837 29.86 32.0837 29.86H32.0437C32.0437 29.86 32.0337 29.91 32.0137 30.01C32.0003 30.1033 31.9803 30.21 31.9537 30.33C31.9337 30.45 31.9103 30.5467 31.8837 30.62L30.9437 33.67ZM35.7324 36V29.14H38.4924C39.1658 29.14 39.6758 29.3167 40.0224 29.67C40.3691 30.0167 40.5424 30.4733 40.5424 31.04C40.5424 31.4667 40.4358 31.8367 40.2224 32.15C40.0091 32.4567 39.7091 32.6767 39.3224 32.81L40.7024 36H39.7224L38.4524 32.97H36.6124V36H35.7324ZM36.6124 32.17H38.4624C38.8158 32.17 39.0958 32.0667 39.3024 31.86C39.5158 31.6533 39.6224 31.38 39.6224 31.04C39.6224 30.7 39.5224 30.4333 39.3224 30.24C39.1224 30.04 38.8358 29.94 38.4624 29.94H36.6124V32.17ZM41.8504 36V29.14H46.0804V29.94H42.7304V32.09H45.6404V32.89H42.7304V35.2H46.1404V36H41.8504ZM47.5191 36V29.14H51.7491V29.94H48.3991V32.09H51.3091V32.89H48.3991V35.2H51.8091V36H47.5191ZM54.7879 36V33.16L52.5679 29.14H53.5379L55.2779 32.32H55.3179L57.0279 29.14H57.8779L55.6679 33.16V36H54.7879ZM58.8566 36V29.14H63.0866V29.94H59.7366V32.09H62.6466V32.89H59.7366V35.2H63.1466V36H58.8566ZM66.5454 36.12C66.1321 36.12 65.7487 36.0533 65.3954 35.92C65.0421 35.7867 64.7587 35.57 64.5454 35.27C64.3387 34.97 64.2354 34.5667 64.2354 34.06C64.2354 34.0267 64.2354 33.99 64.2354 33.95C64.2421 33.9033 64.2454 33.8733 64.2454 33.86H65.1554C65.1554 33.8667 65.1521 33.8967 65.1454 33.95C65.1454 33.9967 65.1454 34.0367 65.1454 34.07C65.1454 34.49 65.2754 34.8033 65.5354 35.01C65.7954 35.21 66.1187 35.31 66.5054 35.31C66.9654 35.31 67.3187 35.2133 67.5654 35.02C67.8187 34.82 67.9454 34.5367 67.9454 34.17C67.9454 33.9233 67.8787 33.7233 67.7454 33.57C67.6187 33.4167 67.4487 33.29 67.2354 33.19C67.0287 33.09 66.7987 33 66.5454 32.92C66.2921 32.84 66.0354 32.7533 65.7754 32.66C65.5221 32.5667 65.2887 32.4467 65.0754 32.3C64.8687 32.1533 64.6987 31.9667 64.5654 31.74C64.4387 31.5067 64.3754 31.2133 64.3754 30.86C64.3754 30.44 64.4721 30.0933 64.6654 29.82C64.8654 29.5467 65.1287 29.3467 65.4554 29.22C65.7887 29.0867 66.1554 29.02 66.5554 29.02C66.9554 29.02 67.3154 29.0867 67.6354 29.22C67.9621 29.3467 68.2221 29.5533 68.4154 29.84C68.6087 30.12 68.7054 30.49 68.7054 30.95V31.07H67.7954V30.92C67.7954 30.5667 67.6787 30.2967 67.4454 30.11C67.2121 29.9233 66.9221 29.83 66.5754 29.83C66.2154 29.83 65.9121 29.9067 65.6654 30.06C65.4254 30.2133 65.3054 30.4567 65.3054 30.79C65.3054 31.0233 65.3687 31.2133 65.4954 31.36C65.6287 31.5067 65.7987 31.63 66.0054 31.73C66.2187 31.8233 66.4521 31.91 66.7054 31.99C66.9587 32.07 67.2121 32.1567 67.4654 32.25C67.7187 32.3433 67.9487 32.4633 68.1554 32.61C68.3687 32.7567 68.5387 32.9433 68.6654 33.17C68.7987 33.39 68.8654 33.6733 68.8654 34.02C68.8654 34.5333 68.7621 34.9433 68.5554 35.25C68.3554 35.5567 68.0821 35.78 67.7354 35.92C67.3887 36.0533 66.9921 36.12 66.5454 36.12Z" fill="url(#paint3_radial_422_1854)"/>
<path d="M18.248 42.048C17.8933 42.048 17.624 41.9307 17.44 41.696C17.2587 41.4587 17.168 41.1027 17.168 40.628C17.168 40.1507 17.2587 39.7947 17.44 39.56C17.624 39.3253 17.8933 39.208 18.248 39.208C18.4347 39.208 18.6 39.2467 18.744 39.324C18.888 39.3987 19 39.5133 19.08 39.668C19.1627 39.82 19.204 40.0133 19.204 40.248H18.844C18.844 40.008 18.7893 39.8293 18.68 39.712C18.5733 39.592 18.4293 39.532 18.248 39.532C18.008 39.532 17.8293 39.6147 17.712 39.78C17.5947 39.9453 17.536 40.1947 17.536 40.528V40.728C17.536 41.0613 17.5947 41.3107 17.712 41.476C17.8293 41.6413 18.008 41.724 18.248 41.724C18.432 41.724 18.5787 41.6653 18.688 41.548C18.8 41.4307 18.856 41.2533 18.856 41.016H19.204C19.204 41.2507 19.1627 41.4453 19.08 41.6C19 41.752 18.888 41.8653 18.744 41.94C18.6 42.012 18.4347 42.048 18.248 42.048ZM20.7632 42.048C20.4272 42.048 20.1632 41.9307 19.9712 41.696C19.7792 41.4587 19.6832 41.1027 19.6832 40.628C19.6832 40.1507 19.7792 39.7947 19.9712 39.56C20.1632 39.3253 20.4272 39.208 20.7632 39.208C21.0992 39.208 21.3632 39.3253 21.5552 39.56C21.7472 39.7947 21.8432 40.1507 21.8432 40.628C21.8432 41.1027 21.7472 41.4587 21.5552 41.696C21.3632 41.9307 21.0992 42.048 20.7632 42.048ZM20.7632 41.724C20.9845 41.724 21.1579 41.6413 21.2832 41.476C21.4112 41.3107 21.4752 41.0613 21.4752 40.728V40.528C21.4752 40.1947 21.4112 39.9453 21.2832 39.78C21.1579 39.6147 20.9845 39.532 20.7632 39.532C20.5445 39.532 20.3712 39.6147 20.2432 39.78C20.1152 39.9453 20.0512 40.1947 20.0512 40.528V40.728C20.0512 41.0613 20.1152 41.3107 20.2432 41.476C20.3712 41.6413 20.5445 41.724 20.7632 41.724ZM22.438 42V39.256H22.742L23.762 40.98C23.7833 41.0147 23.806 41.0613 23.83 41.12C23.8566 41.1787 23.8793 41.232 23.898 41.28C23.9193 41.3253 23.93 41.348 23.93 41.348L23.942 41.344C23.942 41.344 23.9406 41.32 23.938 41.272C23.938 41.224 23.9366 41.1707 23.934 41.112C23.9313 41.0533 23.93 41.0093 23.93 40.98V39.256H24.246V42H23.954L22.926 40.252C22.9046 40.212 22.8793 40.164 22.85 40.108C22.8233 40.0493 22.7993 39.9973 22.778 39.952C22.7593 39.9067 22.75 39.884 22.75 39.884L22.738 39.888C22.738 39.888 22.7393 39.9107 22.742 39.956C22.7446 40.0013 22.7473 40.0533 22.75 40.112C22.7526 40.168 22.754 40.2147 22.754 40.252V42H22.438ZM24.9252 42V39.256H25.2292L26.2492 40.98C26.2705 41.0147 26.2932 41.0613 26.3172 41.12C26.3438 41.1787 26.3665 41.232 26.3852 41.28C26.4065 41.3253 26.4172 41.348 26.4172 41.348L26.4292 41.344C26.4292 41.344 26.4278 41.32 26.4252 41.272C26.4252 41.224 26.4238 41.1707 26.4212 41.112C26.4185 41.0533 26.4172 41.0093 26.4172 40.98V39.256H26.7332V42H26.4412L25.4132 40.252C25.3918 40.212 25.3665 40.164 25.3372 40.108C25.3105 40.0493 25.2865 39.9973 25.2652 39.952C25.2465 39.9067 25.2372 39.884 25.2372 39.884L25.2252 39.888C25.2252 39.888 25.2265 39.9107 25.2292 39.956C25.2318 40.0013 25.2345 40.0533 25.2372 40.112C25.2398 40.168 25.2412 40.2147 25.2412 40.252V42H24.9252ZM27.4123 42V39.256H29.1043V39.576H27.7643V40.436H28.9283V40.756H27.7643V41.68H29.1283V42H27.4123ZM30.6878 42.048C30.3332 42.048 30.0638 41.9307 29.8798 41.696C29.6985 41.4587 29.6078 41.1027 29.6078 40.628C29.6078 40.1507 29.6985 39.7947 29.8798 39.56C30.0638 39.3253 30.3332 39.208 30.6878 39.208C30.8745 39.208 31.0398 39.2467 31.1838 39.324C31.3278 39.3987 31.4398 39.5133 31.5198 39.668C31.6025 39.82 31.6438 40.0133 31.6438 40.248H31.2838C31.2838 40.008 31.2292 39.8293 31.1198 39.712C31.0132 39.592 30.8692 39.532 30.6878 39.532C30.4478 39.532 30.2692 39.6147 30.1518 39.78C30.0345 39.9453 29.9758 40.1947 29.9758 40.528V40.728C29.9758 41.0613 30.0345 41.3107 30.1518 41.476C30.2692 41.6413 30.4478 41.724 30.6878 41.724C30.8718 41.724 31.0185 41.6653 31.1278 41.548C31.2398 41.4307 31.2958 41.2533 31.2958 41.016H31.6438C31.6438 41.2507 31.6025 41.4453 31.5198 41.6C31.4398 41.752 31.3278 41.8653 31.1838 41.94C31.0398 42.012 30.8745 42.048 30.6878 42.048ZM32.751 42V39.576H32.003V39.256H33.851V39.576H33.103V42H32.751ZM34.3309 42V39.256H34.6829V42H34.3309ZM35.3611 42V39.256H35.6651L36.6851 40.98C36.7064 41.0147 36.7291 41.0613 36.7531 41.12C36.7798 41.1787 36.8024 41.232 36.8211 41.28C36.8424 41.3253 36.8531 41.348 36.8531 41.348L36.8651 41.344C36.8651 41.344 36.8638 41.32 36.8611 41.272C36.8611 41.224 36.8598 41.1707 36.8571 41.112C36.8544 41.0533 36.8531 41.0093 36.8531 40.98V39.256H37.1691V42H36.8771L35.8491 40.252C35.8278 40.212 35.8024 40.164 35.7731 40.108C35.7464 40.0493 35.7224 39.9973 35.7011 39.952C35.6824 39.9067 35.6731 39.884 35.6731 39.884L35.6611 39.888C35.6611 39.888 35.6624 39.9107 35.6651 39.956C35.6678 40.0013 35.6704 40.0533 35.6731 40.112C35.6758 40.168 35.6771 40.2147 35.6771 40.252V42H35.3611ZM38.8443 42.048C38.4976 42.048 38.2309 41.9307 38.0443 41.696C37.8576 41.4587 37.7643 41.1027 37.7643 40.628C37.7643 40.1507 37.8616 39.7947 38.0563 39.56C38.2536 39.3253 38.5229 39.208 38.8643 39.208C39.0563 39.208 39.2269 39.244 39.3763 39.316C39.5256 39.388 39.6429 39.4973 39.7283 39.644C39.8163 39.788 39.8603 39.9707 39.8603 40.192H39.5003C39.5003 39.9627 39.4416 39.796 39.3243 39.692C39.2069 39.5853 39.0536 39.532 38.8643 39.532C38.6376 39.532 38.4589 39.6147 38.3283 39.78C38.1976 39.9453 38.1323 40.1947 38.1323 40.528V40.728C38.1323 41.0613 38.1936 41.3107 38.3163 41.476C38.4389 41.6413 38.6149 41.724 38.8443 41.724C39.0736 41.724 39.2403 41.66 39.3443 41.532C39.4483 41.4013 39.5003 41.2053 39.5003 40.944V40.732L39.6483 40.88H38.7883V40.572H39.8603V42H39.6283L39.5523 41.696C39.4696 41.8187 39.3683 41.908 39.2483 41.964C39.1283 42.02 38.9936 42.048 38.8443 42.048ZM41.5492 42V39.256H43.1332V39.576H41.9012V40.464H42.9892V40.784H41.9012V42H41.5492ZM43.6731 42V39.256H44.0251V42H43.6731ZM44.7033 42V39.256H45.0553V41.68H46.1753V42H44.7033ZM46.6155 42V39.256H47.1515L47.6355 41.056C47.6488 41.1067 47.6608 41.1667 47.6715 41.236C47.6822 41.3053 47.6915 41.3733 47.6995 41.44C47.7102 41.5067 47.7168 41.5627 47.7195 41.608C47.7248 41.6507 47.7275 41.672 47.7275 41.672H47.7435C47.7435 41.672 47.7448 41.6493 47.7475 41.604C47.7528 41.5587 47.7595 41.5027 47.7675 41.436C47.7755 41.3693 47.7848 41.3013 47.7955 41.232C47.8062 41.1627 47.8182 41.104 47.8315 41.056L48.3195 39.256H48.8515V42H48.4995V40.008C48.4995 39.984 48.5008 39.9493 48.5035 39.904C48.5062 39.856 48.5088 39.808 48.5115 39.76C48.5168 39.712 48.5208 39.6707 48.5235 39.636C48.5262 39.6013 48.5275 39.584 48.5275 39.584H48.5115C48.5115 39.584 48.5075 39.6013 48.4995 39.636C48.4942 39.6707 48.4862 39.712 48.4755 39.76C48.4648 39.808 48.4542 39.856 48.4435 39.904C48.4355 39.9493 48.4275 39.984 48.4195 40.008L47.8715 42H47.5555L47.0075 40.008C47.0022 39.9893 46.9942 39.9573 46.9835 39.912C46.9755 39.8667 46.9662 39.8187 46.9555 39.768C46.9475 39.7173 46.9395 39.6747 46.9315 39.64C46.9262 39.6027 46.9235 39.584 46.9235 39.584H46.9075C46.9075 39.584 46.9088 39.6027 46.9115 39.64C46.9142 39.6747 46.9168 39.7173 46.9195 39.768C46.9222 39.816 46.9248 39.8627 46.9275 39.908C46.9302 39.9533 46.9315 39.9867 46.9315 40.008V42H46.6155ZM49.258 41.116V40.724H50.266V41.116H49.258ZM50.7117 42V39.256H51.0637V41.68H52.1837V42H50.7117ZM53.6519 42.048C53.3159 42.048 53.0519 41.9307 52.8599 41.696C52.6679 41.4587 52.5719 41.1027 52.5719 40.628C52.5719 40.1507 52.6679 39.7947 52.8599 39.56C53.0519 39.3253 53.3159 39.208 53.6519 39.208C53.9879 39.208 54.2519 39.3253 54.4439 39.56C54.6359 39.7947 54.7319 40.1507 54.7319 40.628C54.7319 41.1027 54.6359 41.4587 54.4439 41.696C54.2519 41.9307 53.9879 42.048 53.6519 42.048ZM53.6519 41.724C53.8733 41.724 54.0466 41.6413 54.1719 41.476C54.2999 41.3107 54.3639 41.0613 54.3639 40.728V40.528C54.3639 40.1947 54.2999 39.9453 54.1719 39.78C54.0466 39.6147 53.8733 39.532 53.6519 39.532C53.4333 39.532 53.2599 39.6147 53.1319 39.78C53.0039 39.9453 52.9399 40.1947 52.9399 40.528V40.728C52.9399 41.0613 53.0039 41.3107 53.1319 41.476C53.2599 41.6413 53.4333 41.724 53.6519 41.724ZM55.9147 42L55.0787 39.256H55.4667L56.1467 41.612H56.1627L56.8627 39.256H57.2027L56.3667 42H55.9147ZM57.6342 42V39.256H59.3262V39.576H57.9862V40.436H59.1502V40.756H57.9862V41.68H59.3502V42H57.6342ZM59.9417 42V39.256H61.0457C61.3151 39.256 61.5191 39.3267 61.6577 39.468C61.7964 39.6067 61.8657 39.7893 61.8657 40.016C61.8657 40.1867 61.8231 40.3347 61.7377 40.46C61.6524 40.5827 61.5324 40.6707 61.3777 40.724L61.9297 42H61.5377L61.0297 40.788H60.2937V42H59.9417ZM60.2937 40.468H61.0337C61.1751 40.468 61.2871 40.4267 61.3697 40.344C61.4551 40.2613 61.4977 40.152 61.4977 40.016C61.4977 39.88 61.4577 39.7733 61.3777 39.696C61.2977 39.616 61.1831 39.576 61.0337 39.576H60.2937V40.468ZM63.2369 42.048C63.0716 42.048 62.9182 42.0213 62.7769 41.968C62.6356 41.9147 62.5222 41.828 62.4369 41.708C62.3542 41.588 62.3129 41.4267 62.3129 41.224C62.3129 41.2107 62.3129 41.196 62.3129 41.18C62.3156 41.1613 62.3169 41.1493 62.3169 41.144H62.6809C62.6809 41.1467 62.6796 41.1587 62.6769 41.18C62.6769 41.1987 62.6769 41.2147 62.6769 41.228C62.6769 41.396 62.7289 41.5213 62.8329 41.604C62.9369 41.684 63.0662 41.724 63.2209 41.724C63.4049 41.724 63.5462 41.6853 63.6449 41.608C63.7462 41.528 63.7969 41.4147 63.7969 41.268C63.7969 41.1693 63.7702 41.0893 63.7169 41.028C63.6662 40.9667 63.5982 40.916 63.5129 40.876C63.4302 40.836 63.3382 40.8 63.2369 40.768C63.1356 40.736 63.0329 40.7013 62.9289 40.664C62.8276 40.6267 62.7342 40.5787 62.6489 40.52C62.5662 40.4613 62.4982 40.3867 62.4449 40.296C62.3942 40.2027 62.3689 40.0853 62.3689 39.944C62.3689 39.776 62.4076 39.6373 62.4849 39.528C62.5649 39.4187 62.6702 39.3387 62.8009 39.288C62.9342 39.2347 63.0809 39.208 63.2409 39.208C63.4009 39.208 63.5449 39.2347 63.6729 39.288C63.8036 39.3387 63.9076 39.4213 63.9849 39.536C64.0622 39.648 64.1009 39.796 64.1009 39.98V40.028H63.7369V39.968C63.7369 39.8267 63.6902 39.7187 63.5969 39.644C63.5036 39.5693 63.3876 39.532 63.2489 39.532C63.1049 39.532 62.9836 39.5627 62.8849 39.624C62.7889 39.6853 62.7409 39.7827 62.7409 39.916C62.7409 40.0093 62.7662 40.0853 62.8169 40.144C62.8702 40.2027 62.9382 40.252 63.0209 40.292C63.1062 40.3293 63.1996 40.364 63.3009 40.396C63.4022 40.428 63.5036 40.4627 63.6049 40.5C63.7062 40.5373 63.7982 40.5853 63.8809 40.644C63.9662 40.7027 64.0342 40.7773 64.0849 40.868C64.1382 40.956 64.1649 41.0693 64.1649 41.208C64.1649 41.4133 64.1236 41.5773 64.0409 41.7C63.9609 41.8227 63.8516 41.912 63.7129 41.968C63.5742 42.0213 63.4156 42.048 63.2369 42.048Z" fill="url(#paint4_linear_422_1854)"/>
<defs>
<linearGradient id="paint0_linear_422_1854" x1="1" y1="3.13452" x2="53.3207" y2="72.1068" gradientUnits="userSpaceOnUse">
<stop offset="0.416047" stop-color="#007471"/>
<stop offset="0.494917" stop-color="#00EAFF"/>
<stop offset="0.569789" stop-color="#007471"/>
</linearGradient>
<linearGradient id="paint1_linear_422_1854" x1="4.99997" y1="0.999999" x2="57.2665" y2="69.1756" gradientUnits="userSpaceOnUse">
<stop offset="0.341299" stop-color="#007471"/>
<stop offset="0.477274" stop-color="#00EAFF"/>
<stop offset="0.691723" stop-color="#007471"/>
</linearGradient>
<linearGradient id="paint2_linear_422_1854" x1="34.3543" y1="10.9737" x2="44.7214" y2="27.152" gradientUnits="userSpaceOnUse">
<stop offset="0.121189" stop-color="#007471"/>
<stop offset="0.569557" stop-color="#00EAFF"/>
<stop offset="0.905322" stop-color="#007471"/>
</linearGradient>
<radialGradient id="paint3_radial_422_1854" cx="0" cy="0" r="1" gradientUnits="userSpaceOnUse" gradientTransform="translate(72.0857 21.4145) rotate(-90.7352) scale(16.5303 151.79)">
<stop offset="0.331216" stop-color="#E5C703"/>
<stop offset="0.512646" stop-color="#FDE651"/>
<stop offset="0.809817" stop-color="#E5C703"/>
</radialGradient>
<linearGradient id="paint4_linear_422_1854" x1="70.1064" y1="38.1454" x2="70.1064" y2="42.509" gradientUnits="userSpaceOnUse">
<stop stop-color="#007471"/>
<stop offset="0.161458" stop-color="#00EAFF"/>
<stop offset="1" stop-color="#007471"/>
</linearGradient>
</defs>
</svg>
