<svg width="82" height="66" viewBox="0 0 82 66" fill="none" xmlns="http://www.w3.org/2000/svg">
<path d="M78.3267 3.67859H1V65H78.3267V3.67859Z" stroke="url(#paint0_linear_422_1845)" stroke-linecap="square"/>
<path d="M81.2856 1H4.37769V61.9893H81.2856V1Z" stroke="url(#paint1_linear_422_1845)" stroke-linecap="square"/>
<path d="M44.1038 12.8846L44.4275 13.7745C44.4481 13.8447 44.4326 13.9172 44.3847 13.9762C44.3367 14.0352 44.26 14.0759 44.1715 14.0892L35.6888 15.3581C35.645 15.3647 35.5996 15.3644 35.5551 15.3572C35.5107 15.35 35.4682 15.336 35.43 15.3161C35.3917 15.2961 35.3586 15.2706 35.3324 15.241C35.3062 15.2114 35.2875 15.1783 35.2773 15.1435L34.5002 12.5647L30.5655 12.4155L34.1747 25.7902L35.4371 25.8347L37.2871 25.9027L38.4712 25.9966C38.4609 25.9618 38.4593 25.9261 38.4666 25.8914C38.4739 25.8568 38.4899 25.8239 38.5137 25.7946C38.5375 25.7654 38.5686 25.7404 38.6052 25.721C38.6419 25.7017 38.6833 25.6884 38.7272 25.6819L47.2101 24.4127C47.2986 24.3997 47.3915 24.415 47.4686 24.4552C47.5457 24.4954 47.6007 24.5572 47.6216 24.6272L48.116 26.3966L49.1497 26.46C49.0663 26.4721 51.1172 26.5234 51.1172 26.5234L52.2852 26.569C50.3315 20.2296 50.5696 20.7615 48.2614 13.2172L44.1038 12.8846ZM31.9449 13.9898L31.6501 12.9871C31.6407 12.9555 31.6392 12.9231 31.6458 12.8916C31.6523 12.8602 31.6668 12.8303 31.6884 12.8038C31.71 12.7773 31.7383 12.7546 31.7715 12.7371C31.8048 12.7196 31.8424 12.7075 31.8823 12.7017L33.1474 12.5118C33.1872 12.5058 33.2285 12.5061 33.2689 12.5127C33.3093 12.5192 33.348 12.5319 33.3828 12.5501C33.4175 12.5682 33.4477 12.5914 33.4715 12.6183C33.4954 12.6452 33.5124 12.6754 33.5216 12.707L33.8166 13.7102C33.8351 13.7739 33.8211 13.8396 33.7776 13.8931C33.7341 13.9466 33.6646 13.9834 33.5844 13.9956L32.3192 14.1849C32.2387 14.1968 32.1542 14.1829 32.084 14.1463C32.0139 14.1098 31.9639 14.0535 31.9449 13.9898ZM32.8245 16.9774L32.5293 15.9745C32.5199 15.9429 32.5185 15.9105 32.525 15.879C32.5316 15.8475 32.5462 15.8176 32.5678 15.7911C32.5894 15.7645 32.6176 15.7418 32.6509 15.7243C32.6842 15.7067 32.7219 15.6947 32.7618 15.6888L34.0265 15.5001C34.0663 15.494 34.1076 15.4942 34.148 15.5007C34.1884 15.5072 34.2271 15.5199 34.2619 15.538C34.2967 15.5561 34.3268 15.5793 34.3506 15.6063C34.3743 15.6332 34.3913 15.6634 34.4004 15.695L34.696 16.6974C34.7055 16.7289 34.7069 16.7614 34.7003 16.7929C34.6938 16.8243 34.6792 16.8542 34.6576 16.8808C34.636 16.9073 34.6078 16.93 34.5745 16.9476C34.5412 16.9651 34.5035 16.9772 34.4636 16.983L33.1984 17.1724C33.1586 17.1783 33.1173 17.178 33.077 17.1715C33.0367 17.1649 32.998 17.1522 32.9633 17.1341C32.9286 17.116 32.8984 17.0928 32.8746 17.066C32.8508 17.0391 32.8338 17.009 32.8245 16.9774ZM33.7008 19.9547L33.4061 18.9525C33.3968 18.9208 33.3954 18.8883 33.402 18.8568C33.4087 18.8253 33.4233 18.7954 33.4449 18.7688C33.4665 18.7422 33.4948 18.7195 33.5281 18.7019C33.5614 18.6843 33.5991 18.6721 33.6391 18.6662L34.903 18.4771C34.9429 18.4711 34.9842 18.4713 35.0247 18.4779C35.0651 18.4845 35.1038 18.4972 35.1386 18.5154C35.1734 18.5335 35.2036 18.5567 35.2275 18.5837C35.2513 18.6106 35.2684 18.6408 35.2777 18.6724L35.5725 19.6743C35.5819 19.7059 35.5833 19.7385 35.5766 19.77C35.57 19.8015 35.5554 19.8314 35.5338 19.858C35.5121 19.8846 35.4839 19.9073 35.4505 19.9249C35.4172 19.9425 35.3795 19.9547 35.3396 19.9606L34.0754 20.15C34.0355 20.156 33.9942 20.1558 33.9538 20.1492C33.9133 20.1426 33.8746 20.1299 33.8398 20.1117C33.805 20.0936 33.7748 20.0704 33.7509 20.0434C33.7271 20.0165 33.71 19.9863 33.7008 19.9547ZM37.0334 24.6381L37.3281 25.6403C37.3374 25.672 37.3388 25.7045 37.3322 25.736C37.3255 25.7675 37.3087 25.8761 37.2871 25.9027C37.327 25.8968 37.368 25.9145 37.2871 25.9027L35.4371 25.8347L35.1609 24.9181C35.1421 24.8542 35.1561 24.7882 35.1998 24.7345C35.2435 24.6808 35.3132 24.6439 35.3938 24.6318L36.6588 24.4428C36.7393 24.4308 36.8241 24.4446 36.8943 24.4812C36.9646 24.5178 37.0146 24.5743 37.0334 24.6381ZM34.5798 22.9424L34.2851 21.9402C34.2758 21.9086 34.2744 21.8761 34.281 21.8446C34.2877 21.8131 34.3022 21.7832 34.3239 21.7566C34.3455 21.73 34.3738 21.7072 34.4071 21.6896C34.4404 21.672 34.4781 21.6599 34.518 21.6539L35.7822 21.4645C35.9498 21.4399 36.1172 21.5272 36.1569 21.6598L36.4515 22.6621C36.4609 22.6937 36.4623 22.7262 36.4556 22.7577C36.449 22.7892 36.4344 22.8191 36.4128 22.8457C36.3911 22.8723 36.3629 22.8951 36.3295 22.9127C36.2962 22.9303 36.2585 22.9424 36.2186 22.9483L34.9544 23.1378C34.9145 23.1438 34.8732 23.1435 34.8327 23.1369C34.7923 23.1303 34.7536 23.1176 34.7188 23.0995C34.684 23.0813 34.6538 23.0581 34.6299 23.0312C34.6061 23.0042 34.589 22.9741 34.5798 22.9424ZM38.2606 24.0953C38.2167 24.1019 38.1713 24.1016 38.1268 24.0944C38.0824 24.0871 38.0398 24.0732 38.0015 24.0532C37.9633 24.0333 37.9301 24.0077 37.9039 23.9781C37.8776 23.9485 37.8589 23.9153 37.8487 23.8805L35.8687 17.1564C35.8482 17.0862 35.8636 17.0136 35.9116 16.9547C35.9596 16.8957 36.0363 16.855 36.1248 16.8417C39.8777 16.3088 41.5639 16.0451 44.6083 15.5724C44.6969 15.5593 44.79 15.5745 44.8672 15.6147C44.9444 15.655 44.9994 15.717 45.0202 15.7872L46.9989 22.5115C47.0195 22.5817 47.0041 22.6543 46.9561 22.7133C46.9081 22.7722 46.8314 22.8129 46.7429 22.8262L38.2606 24.0953ZM50.8652 25.6873L51.1172 26.5234L49.1497 26.46L48.993 25.9674C48.9745 25.9037 48.9886 25.8378 49.0322 25.7842C49.0758 25.7306 49.1453 25.6937 49.2257 25.6815L50.4909 25.4921C50.6585 25.4676 50.8259 25.5548 50.8652 25.6873ZM49.9858 22.6993L50.2799 23.7021C50.2894 23.7337 50.2908 23.7662 50.2842 23.7976C50.2776 23.8291 50.2631 23.859 50.2415 23.8855C50.2199 23.9121 50.1917 23.9348 50.1584 23.9524C50.1251 23.9699 50.0874 23.982 50.0475 23.9878L48.7831 24.1776C48.7433 24.1836 48.702 24.1834 48.6616 24.1769C48.6212 24.1703 48.5825 24.1577 48.5478 24.1395C48.513 24.1214 48.4829 24.0982 48.4591 24.0713C48.4353 24.0444 48.4184 24.0142 48.4092 23.9826L48.1136 22.9795C48.0951 22.9158 48.1092 22.85 48.1527 22.7964C48.1963 22.7429 48.2658 22.706 48.3461 22.6938L49.6119 22.5044C49.6923 22.4925 49.7768 22.5064 49.8468 22.5429C49.9169 22.5794 49.9669 22.6357 49.9858 22.6993ZM49.1096 19.7221L49.4042 20.7243C49.4137 20.7559 49.4152 20.7884 49.4086 20.8199C49.402 20.8514 49.3875 20.8813 49.3659 20.9079C49.3442 20.9345 49.3159 20.9572 49.2826 20.9748C49.2492 20.9924 49.2115 21.0044 49.1715 21.0102L47.9071 21.2C47.8266 21.2119 47.742 21.1981 47.6719 21.1615C47.6017 21.1249 47.5517 21.0686 47.5328 21.0049L47.238 20.0021C47.2287 19.9705 47.2273 19.9381 47.2339 19.9066C47.2405 19.8751 47.2551 19.8452 47.2767 19.8186C47.2983 19.7921 47.3266 19.7693 47.3599 19.7518C47.3932 19.7342 47.4308 19.7221 47.4707 19.7161L48.7353 19.5269C48.8158 19.515 48.9004 19.5288 48.9705 19.5654C49.0407 19.602 49.0907 19.6583 49.1096 19.7221ZM48.2293 16.7345L48.5254 17.737C48.5439 17.8008 48.5298 17.8667 48.4862 17.9203C48.4426 17.9738 48.373 18.0108 48.2927 18.023L47.0273 18.2118C46.9874 18.2179 46.9461 18.2176 46.9057 18.211C46.8653 18.2045 46.8266 18.1917 46.7919 18.1736C46.7571 18.1555 46.727 18.1323 46.7031 18.1054C46.6793 18.0784 46.6623 18.0483 46.653 18.0167L46.3584 17.0145C46.3489 16.9829 46.3474 16.9504 46.354 16.9189C46.3606 16.8873 46.3751 16.8574 46.3967 16.8308C46.4184 16.8042 46.4467 16.7815 46.48 16.7639C46.5134 16.7464 46.5511 16.7343 46.5911 16.7285L47.855 16.5394C47.9355 16.5274 48.0201 16.5413 48.0902 16.5778C48.1604 16.6144 48.2104 16.6708 48.2293 16.7345ZM47.3533 13.7569L47.6486 14.7591C47.6579 14.7907 47.6593 14.8231 47.6527 14.8546C47.646 14.8861 47.6315 14.916 47.6099 14.9425C47.5883 14.9691 47.56 14.9918 47.5267 15.0094C47.4934 15.027 47.4558 15.0391 47.4159 15.045L46.1508 15.2349C46.1109 15.2409 46.0696 15.2406 46.0291 15.234C45.9887 15.2274 45.95 15.2147 45.9152 15.1966C45.8804 15.1784 45.8502 15.1552 45.8263 15.1283C45.8025 15.1013 45.7854 15.0712 45.7761 15.0395L45.4812 14.0363C45.4627 13.9725 45.4768 13.9066 45.5204 13.8531C45.564 13.7995 45.6335 13.7625 45.7139 13.7503L46.9786 13.5616C47.0185 13.5555 47.0599 13.5557 47.1004 13.5622C47.1409 13.5688 47.1796 13.5815 47.2145 13.5996C47.2493 13.6178 47.2795 13.6411 47.3033 13.668C47.3271 13.695 47.3441 13.7253 47.3533 13.7569Z" fill="url(#paint2_linear_422_1845)"/>
<path d="M12.856 40.126C12.422 40.126 12.0195 40.056 11.6485 39.916C11.2775 39.776 10.98 39.5485 10.756 39.2335C10.539 38.9185 10.4305 38.495 10.4305 37.963C10.4305 37.928 10.4305 37.8895 10.4305 37.8475C10.4375 37.7985 10.441 37.767 10.441 37.753H11.3965C11.3965 37.76 11.393 37.7915 11.386 37.8475C11.386 37.8965 11.386 37.9385 11.386 37.9735C11.386 38.4145 11.5225 38.7435 11.7955 38.9605C12.0685 39.1705 12.408 39.2755 12.814 39.2755C13.297 39.2755 13.668 39.174 13.927 38.971C14.193 38.761 14.326 38.4635 14.326 38.0785C14.326 37.8195 14.256 37.6095 14.116 37.4485C13.983 37.2875 13.8045 37.1545 13.5805 37.0495C13.3635 36.9445 13.122 36.85 12.856 36.766C12.59 36.682 12.3205 36.591 12.0475 36.493C11.7815 36.395 11.5365 36.269 11.3125 36.115C11.0955 35.961 10.917 35.765 10.777 35.527C10.644 35.282 10.5775 34.974 10.5775 34.603C10.5775 34.162 10.679 33.798 10.882 33.511C11.092 33.224 11.3685 33.014 11.7115 32.881C12.0615 32.741 12.4465 32.671 12.8665 32.671C13.2865 32.671 13.6645 32.741 14.0005 32.881C14.3435 33.014 14.6165 33.231 14.8195 33.532C15.0225 33.826 15.124 34.2145 15.124 34.6975V34.8235H14.1685V34.666C14.1685 34.295 14.046 34.0115 13.801 33.8155C13.556 33.6195 13.2515 33.5215 12.8875 33.5215C12.5095 33.5215 12.191 33.602 11.932 33.763C11.68 33.924 11.554 34.1795 11.554 34.5295C11.554 34.7745 11.6205 34.974 11.7535 35.128C11.8935 35.282 12.072 35.4115 12.289 35.5165C12.513 35.6145 12.758 35.7055 13.024 35.7895C13.29 35.8735 13.556 35.9645 13.822 36.0625C14.088 36.1605 14.3295 36.2865 14.5465 36.4405C14.7705 36.5945 14.949 36.7905 15.082 37.0285C15.222 37.2595 15.292 37.557 15.292 37.921C15.292 38.46 15.1835 38.8905 14.9665 39.2125C14.7565 39.5345 14.4695 39.769 14.1055 39.916C13.7415 40.056 13.325 40.126 12.856 40.126ZM20.6772 41.302L19.4277 40.126H19.3017C18.4197 40.126 17.7267 39.818 17.2227 39.202C16.7187 38.579 16.4667 37.6445 16.4667 36.3985C16.4667 35.1455 16.7187 34.211 17.2227 33.595C17.7267 32.979 18.4197 32.671 19.3017 32.671C20.1837 32.671 20.8767 32.979 21.3807 33.595C21.8847 34.211 22.1367 35.1455 22.1367 36.3985C22.1367 37.3505 21.9862 38.1205 21.6852 38.7085C21.3842 39.2965 20.9642 39.7025 20.4252 39.9265L21.9162 41.302H20.6772ZM19.3017 39.2755C19.8827 39.2755 20.3377 39.0585 20.6667 38.6245C21.0027 38.1905 21.1707 37.536 21.1707 36.661V36.136C21.1707 35.261 21.0027 34.6065 20.6667 34.1725C20.3377 33.7385 19.8827 33.5215 19.3017 33.5215C18.7277 33.5215 18.2727 33.7385 17.9367 34.1725C17.6007 34.6065 17.4327 35.261 17.4327 36.136V36.661C17.4327 37.536 17.6007 38.1905 17.9367 38.6245C18.2727 39.0585 18.7277 39.2755 19.3017 39.2755ZM25.966 40.126C25.224 40.126 24.643 39.916 24.223 39.496C23.803 39.076 23.593 38.4635 23.593 37.6585V32.797H24.517V37.711C24.517 38.222 24.6465 38.6105 24.9055 38.8765C25.1645 39.1425 25.518 39.2755 25.966 39.2755C26.421 39.2755 26.7745 39.1425 27.0265 38.8765C27.2855 38.6105 27.415 38.222 27.415 37.711V32.797H28.339V37.6585C28.339 38.4635 28.129 39.076 27.709 39.496C27.289 39.916 26.708 40.126 25.966 40.126ZM29.2714 40L31.5604 32.797H32.7469L35.0359 40H34.0384L33.5449 38.3935H30.6889L30.1954 40H29.2714ZM30.9409 37.5535H33.2824L32.3059 34.351C32.2849 34.267 32.2604 34.162 32.2324 34.036C32.2044 33.91 32.1799 33.798 32.1589 33.7C32.1449 33.602 32.1379 33.553 32.1379 33.553H32.0959C32.0959 33.553 32.0854 33.6055 32.0644 33.7105C32.0504 33.8085 32.0294 33.9205 32.0014 34.0465C31.9804 34.1725 31.9559 34.274 31.9279 34.351L30.9409 37.5535ZM35.969 40V32.797H38.867C39.574 32.797 40.1095 32.9825 40.4735 33.3535C40.8375 33.7175 41.0195 34.197 41.0195 34.792C41.0195 35.24 40.9075 35.6285 40.6835 35.9575C40.4595 36.2795 40.1445 36.5105 39.7385 36.6505L41.1875 40H40.1585L38.825 36.8185H36.893V40H35.969ZM36.893 35.9785H38.8355C39.2065 35.9785 39.5005 35.87 39.7175 35.653C39.9415 35.436 40.0535 35.149 40.0535 34.792C40.0535 34.435 39.9485 34.155 39.7385 33.952C39.5285 33.742 39.2275 33.637 38.8355 33.637H36.893V35.9785ZM42.3929 40V32.797H46.8344V33.637H43.3169V35.8945H46.3724V36.7345H43.3169V39.16H46.8974V40H42.3929ZM48.3451 40V32.797H52.7866V33.637H49.2691V35.8945H52.3246V36.7345H49.2691V39.16H52.8496V40H48.3451ZM55.9773 40V37.018L53.6463 32.797H54.6648L56.4918 36.136H56.5338L58.3293 32.797H59.2218L56.9013 37.018V40H55.9773ZM60.2495 40V32.797H64.691V33.637H61.1735V35.8945H64.229V36.7345H61.1735V39.16H64.754V40H60.2495ZM68.3227 40.126C67.8887 40.126 67.4862 40.056 67.1152 39.916C66.7442 39.776 66.4467 39.5485 66.2227 39.2335C66.0057 38.9185 65.8972 38.495 65.8972 37.963C65.8972 37.928 65.8972 37.8895 65.8972 37.8475C65.9042 37.7985 65.9077 37.767 65.9077 37.753H66.8632C66.8632 37.76 66.8597 37.7915 66.8527 37.8475C66.8527 37.8965 66.8527 37.9385 66.8527 37.9735C66.8527 38.4145 66.9892 38.7435 67.2622 38.9605C67.5352 39.1705 67.8747 39.2755 68.2807 39.2755C68.7637 39.2755 69.1347 39.174 69.3937 38.971C69.6597 38.761 69.7927 38.4635 69.7927 38.0785C69.7927 37.8195 69.7227 37.6095 69.5827 37.4485C69.4497 37.2875 69.2712 37.1545 69.0472 37.0495C68.8302 36.9445 68.5887 36.85 68.3227 36.766C68.0567 36.682 67.7872 36.591 67.5142 36.493C67.2482 36.395 67.0032 36.269 66.7792 36.115C66.5622 35.961 66.3837 35.765 66.2437 35.527C66.1107 35.282 66.0442 34.974 66.0442 34.603C66.0442 34.162 66.1457 33.798 66.3487 33.511C66.5587 33.224 66.8352 33.014 67.1782 32.881C67.5282 32.741 67.9132 32.671 68.3332 32.671C68.7532 32.671 69.1312 32.741 69.4672 32.881C69.8102 33.014 70.0832 33.231 70.2862 33.532C70.4892 33.826 70.5907 34.2145 70.5907 34.6975V34.8235H69.6352V34.666C69.6352 34.295 69.5127 34.0115 69.2677 33.8155C69.0227 33.6195 68.7182 33.5215 68.3542 33.5215C67.9762 33.5215 67.6577 33.602 67.3987 33.763C67.1467 33.924 67.0207 34.1795 67.0207 34.5295C67.0207 34.7745 67.0872 34.974 67.2202 35.128C67.3602 35.282 67.5387 35.4115 67.7557 35.5165C67.9797 35.6145 68.2247 35.7055 68.4907 35.7895C68.7567 35.8735 69.0227 35.9645 69.2887 36.0625C69.5547 36.1605 69.7962 36.2865 70.0132 36.4405C70.2372 36.5945 70.4157 36.7905 70.5487 37.0285C70.6887 37.2595 70.7587 37.557 70.7587 37.921C70.7587 38.46 70.6502 38.8905 70.4332 39.2125C70.2232 39.5345 69.9362 39.769 69.5722 39.916C69.2082 40.056 68.7917 40.126 68.3227 40.126Z" fill="url(#paint3_linear_422_1845)"/>
<path d="M14.56 49.06C14.1167 49.06 13.78 48.9133 13.55 48.62C13.3233 48.3233 13.21 47.8783 13.21 47.285C13.21 46.6883 13.3233 46.2433 13.55 45.95C13.78 45.6567 14.1167 45.51 14.56 45.51C14.7933 45.51 15 45.5583 15.18 45.655C15.36 45.7483 15.5 45.8917 15.6 46.085C15.7033 46.275 15.755 46.5167 15.755 46.81H15.305C15.305 46.51 15.2367 46.2867 15.1 46.14C14.9667 45.99 14.7867 45.915 14.56 45.915C14.26 45.915 14.0367 46.0183 13.89 46.225C13.7433 46.4317 13.67 46.7433 13.67 47.16V47.41C13.67 47.8267 13.7433 48.1383 13.89 48.345C14.0367 48.5517 14.26 48.655 14.56 48.655C14.79 48.655 14.9733 48.5817 15.11 48.435C15.25 48.2883 15.32 48.0667 15.32 47.77H15.755C15.755 48.0633 15.7033 48.3067 15.6 48.5C15.5 48.69 15.36 48.8317 15.18 48.925C15 49.015 14.7933 49.06 14.56 49.06ZM17.704 49.06C17.284 49.06 16.954 48.9133 16.714 48.62C16.474 48.3233 16.354 47.8783 16.354 47.285C16.354 46.6883 16.474 46.2433 16.714 45.95C16.954 45.6567 17.284 45.51 17.704 45.51C18.124 45.51 18.454 45.6567 18.694 45.95C18.934 46.2433 19.054 46.6883 19.054 47.285C19.054 47.8783 18.934 48.3233 18.694 48.62C18.454 48.9133 18.124 49.06 17.704 49.06ZM17.704 48.655C17.9807 48.655 18.1973 48.5517 18.354 48.345C18.514 48.1383 18.594 47.8267 18.594 47.41V47.16C18.594 46.7433 18.514 46.4317 18.354 46.225C18.1973 46.0183 17.9807 45.915 17.704 45.915C17.4307 45.915 17.214 46.0183 17.054 46.225C16.894 46.4317 16.814 46.7433 16.814 47.16V47.41C16.814 47.8267 16.894 48.1383 17.054 48.345C17.214 48.5517 17.4307 48.655 17.704 48.655ZM19.7975 49V45.57H20.1775L21.4525 47.725C21.4791 47.7683 21.5075 47.8267 21.5375 47.9C21.5708 47.9733 21.5991 48.04 21.6225 48.1C21.6491 48.1567 21.6625 48.185 21.6625 48.185L21.6775 48.18C21.6775 48.18 21.6758 48.15 21.6725 48.09C21.6725 48.03 21.6708 47.9633 21.6675 47.89C21.6641 47.8167 21.6625 47.7617 21.6625 47.725V45.57H22.0575V49H21.6925L20.4075 46.815C20.3808 46.765 20.3491 46.705 20.3125 46.635C20.2791 46.5617 20.2491 46.4967 20.2225 46.44C20.1991 46.3833 20.1875 46.355 20.1875 46.355L20.1725 46.36C20.1725 46.36 20.1741 46.3883 20.1775 46.445C20.1808 46.5017 20.1841 46.5667 20.1875 46.64C20.1908 46.71 20.1925 46.7683 20.1925 46.815V49H19.7975ZM22.9064 49V45.57H23.2864L24.5614 47.725C24.5881 47.7683 24.6164 47.8267 24.6464 47.9C24.6798 47.9733 24.7081 48.04 24.7314 48.1C24.7581 48.1567 24.7714 48.185 24.7714 48.185L24.7864 48.18C24.7864 48.18 24.7848 48.15 24.7814 48.09C24.7814 48.03 24.7798 47.9633 24.7764 47.89C24.7731 47.8167 24.7714 47.7617 24.7714 47.725V45.57H25.1664V49H24.8014L23.5164 46.815C23.4898 46.765 23.4581 46.705 23.4214 46.635C23.3881 46.5617 23.3581 46.4967 23.3314 46.44C23.3081 46.3833 23.2964 46.355 23.2964 46.355L23.2814 46.36C23.2814 46.36 23.2831 46.3883 23.2864 46.445C23.2898 46.5017 23.2931 46.5667 23.2964 46.64C23.2998 46.71 23.3014 46.7683 23.3014 46.815V49H22.9064ZM26.0154 49V45.57H28.1304V45.97H26.4554V47.045H27.9104V47.445H26.4554V48.6H28.1604V49H26.0154ZM30.1098 49.06C29.6665 49.06 29.3298 48.9133 29.0998 48.62C28.8731 48.3233 28.7598 47.8783 28.7598 47.285C28.7598 46.6883 28.8731 46.2433 29.0998 45.95C29.3298 45.6567 29.6665 45.51 30.1098 45.51C30.3431 45.51 30.5498 45.5583 30.7298 45.655C30.9098 45.7483 31.0498 45.8917 31.1498 46.085C31.2531 46.275 31.3048 46.5167 31.3048 46.81H30.8548C30.8548 46.51 30.7865 46.2867 30.6498 46.14C30.5165 45.99 30.3365 45.915 30.1098 45.915C29.8098 45.915 29.5865 46.0183 29.4398 46.225C29.2931 46.4317 29.2198 46.7433 29.2198 47.16V47.41C29.2198 47.8267 29.2931 48.1383 29.4398 48.345C29.5865 48.5517 29.8098 48.655 30.1098 48.655C30.3398 48.655 30.5231 48.5817 30.6598 48.435C30.7998 48.2883 30.8698 48.0667 30.8698 47.77H31.3048C31.3048 48.0633 31.2531 48.3067 31.1498 48.5C31.0498 48.69 30.9098 48.8317 30.7298 48.925C30.5498 49.015 30.3431 49.06 30.1098 49.06ZM32.6888 49V45.97H31.7538V45.57H34.0638V45.97H33.1288V49H32.6888ZM34.6637 49V45.57H35.1037V49H34.6637ZM35.9514 49V45.57H36.3314L37.6064 47.725C37.633 47.7683 37.6614 47.8267 37.6914 47.9C37.7247 47.9733 37.753 48.04 37.7764 48.1C37.803 48.1567 37.8164 48.185 37.8164 48.185L37.8314 48.18C37.8314 48.18 37.8297 48.15 37.8264 48.09C37.8264 48.03 37.8247 47.9633 37.8214 47.89C37.818 47.8167 37.8164 47.7617 37.8164 47.725V45.57H38.2114V49H37.8464L36.5614 46.815C36.5347 46.765 36.503 46.705 36.4664 46.635C36.433 46.5617 36.403 46.4967 36.3764 46.44C36.353 46.3833 36.3414 46.355 36.3414 46.355L36.3264 46.36C36.3264 46.36 36.328 46.3883 36.3314 46.445C36.3347 46.5017 36.338 46.5667 36.3414 46.64C36.3447 46.71 36.3464 46.7683 36.3464 46.815V49H35.9514ZM40.3054 49.06C39.872 49.06 39.5387 48.9133 39.3054 48.62C39.072 48.3233 38.9554 47.8783 38.9554 47.285C38.9554 46.6883 39.077 46.2433 39.3204 45.95C39.567 45.6567 39.9037 45.51 40.3304 45.51C40.5704 45.51 40.7837 45.555 40.9704 45.645C41.157 45.735 41.3037 45.8717 41.4104 46.055C41.5204 46.235 41.5754 46.4633 41.5754 46.74H41.1254C41.1254 46.4533 41.052 46.245 40.9054 46.115C40.7587 45.9817 40.567 45.915 40.3304 45.915C40.047 45.915 39.8237 46.0183 39.6604 46.225C39.497 46.4317 39.4154 46.7433 39.4154 47.16V47.41C39.4154 47.8267 39.492 48.1383 39.6454 48.345C39.7987 48.5517 40.0187 48.655 40.3054 48.655C40.592 48.655 40.8004 48.575 40.9304 48.415C41.0604 48.2517 41.1254 48.0067 41.1254 47.68V47.415L41.3104 47.6H40.2354V47.215H41.5754V49H41.2854L41.1904 48.62C41.087 48.7733 40.9604 48.885 40.8104 48.955C40.6604 49.025 40.492 49.06 40.3054 49.06ZM44.8965 49.06C44.4532 49.06 44.1165 48.9133 43.8865 48.62C43.6599 48.3233 43.5465 47.8783 43.5465 47.285C43.5465 46.6883 43.6599 46.2433 43.8865 45.95C44.1165 45.6567 44.4532 45.51 44.8965 45.51C45.1299 45.51 45.3365 45.5583 45.5165 45.655C45.6965 45.7483 45.8365 45.8917 45.9365 46.085C46.0399 46.275 46.0915 46.5167 46.0915 46.81H45.6415C45.6415 46.51 45.5732 46.2867 45.4365 46.14C45.3032 45.99 45.1232 45.915 44.8965 45.915C44.5965 45.915 44.3732 46.0183 44.2265 46.225C44.0799 46.4317 44.0065 46.7433 44.0065 47.16V47.41C44.0065 47.8267 44.0799 48.1383 44.2265 48.345C44.3732 48.5517 44.5965 48.655 44.8965 48.655C45.1265 48.655 45.3099 48.5817 45.4465 48.435C45.5865 48.2883 45.6565 48.0667 45.6565 47.77H46.0915C46.0915 48.0633 46.0399 48.3067 45.9365 48.5C45.8365 48.69 45.6965 48.8317 45.5165 48.925C45.3365 49.015 45.1299 49.06 44.8965 49.06ZM46.7955 49V45.57H47.2355V49H46.7955ZM48.0832 49V45.57H48.4632L49.7382 47.725C49.7649 47.7683 49.7932 47.8267 49.8232 47.9C49.8565 47.9733 49.8849 48.04 49.9082 48.1C49.9349 48.1567 49.9482 48.185 49.9482 48.185L49.9632 48.18C49.9632 48.18 49.9615 48.15 49.9582 48.09C49.9582 48.03 49.9565 47.9633 49.9532 47.89C49.9499 47.8167 49.9482 47.7617 49.9482 47.725V45.57H50.3432V49H49.9782L48.6932 46.815C48.6665 46.765 48.6349 46.705 48.5982 46.635C48.5649 46.5617 48.5349 46.4967 48.5082 46.44C48.4849 46.3833 48.4732 46.355 48.4732 46.355L48.4582 46.36C48.4582 46.36 48.4599 46.3883 48.4632 46.445C48.4665 46.5017 48.4699 46.5667 48.4732 46.64C48.4765 46.71 48.4782 46.7683 48.4782 46.815V49H48.0832ZM51.1922 49V45.57H53.3072V45.97H51.6322V47.045H53.0872V47.445H51.6322V48.6H53.3372V49H51.1922ZM51.9172 45.245L52.2972 44.735H52.7972L52.8022 44.75L52.3122 45.245H51.9172ZM54.0766 49V45.57H55.3016C55.5282 45.57 55.7166 45.6117 55.8666 45.695C56.0199 45.7783 56.1349 45.895 56.2116 46.045C56.2882 46.195 56.3266 46.37 56.3266 46.57C56.3266 46.77 56.2849 46.9467 56.2016 47.1C56.1182 47.2533 55.9999 47.3733 55.8466 47.46C55.6966 47.5433 55.5149 47.585 55.3016 47.585H54.5166V49H54.0766ZM54.5166 47.185H55.2866C55.4632 47.185 55.6032 47.1283 55.7066 47.015C55.8132 46.9017 55.8666 46.7533 55.8666 46.57C55.8666 46.3833 55.8166 46.2367 55.7166 46.13C55.6166 46.0233 55.4732 45.97 55.2866 45.97H54.5166V47.185ZM56.9609 49V45.57H57.4009V47.045H58.7809V45.57H59.2209V49H58.7809V47.445H57.4009V49H56.9609ZM60.0699 49V45.57H60.5099V49H60.0699ZM61.3576 49V45.57H61.7976V48.6H63.1976V49H61.3576ZM63.7879 49V45.57H65.9029V45.97H64.2279V47.045H65.6829V47.445H64.2279V48.6H65.9329V49H63.7879ZM67.6823 49.06C67.4756 49.06 67.2839 49.0267 67.1073 48.96C66.9306 48.8933 66.7889 48.785 66.6823 48.635C66.5789 48.485 66.5273 48.2833 66.5273 48.03C66.5273 48.0133 66.5273 47.995 66.5273 47.975C66.5306 47.9517 66.5323 47.9367 66.5323 47.93H66.9873C66.9873 47.9333 66.9856 47.9483 66.9823 47.975C66.9823 47.9983 66.9823 48.0183 66.9823 48.035C66.9823 48.245 67.0473 48.4017 67.1773 48.505C67.3073 48.605 67.4689 48.655 67.6623 48.655C67.8923 48.655 68.0689 48.6067 68.1923 48.51C68.3189 48.41 68.3823 48.2683 68.3823 48.085C68.3823 47.9617 68.3489 47.8617 68.2823 47.785C68.2189 47.7083 68.1339 47.645 68.0273 47.595C67.9239 47.545 67.8089 47.5 67.6823 47.46C67.5556 47.42 67.4273 47.3767 67.2973 47.33C67.1706 47.2833 67.0539 47.2233 66.9473 47.15C66.8439 47.0767 66.7589 46.9833 66.6923 46.87C66.6289 46.7533 66.5973 46.6067 66.5973 46.43C66.5973 46.22 66.6456 46.0467 66.7423 45.91C66.8423 45.7733 66.9739 45.6733 67.1373 45.61C67.3039 45.5433 67.4873 45.51 67.6873 45.51C67.8873 45.51 68.0673 45.5433 68.2273 45.61C68.3906 45.6733 68.5206 45.7767 68.6173 45.92C68.7139 46.06 68.7623 46.245 68.7623 46.475V46.535H68.3073V46.46C68.3073 46.2833 68.2489 46.1483 68.1323 46.055C68.0156 45.9617 67.8706 45.915 67.6973 45.915C67.5173 45.915 67.3656 45.9533 67.2423 46.03C67.1223 46.1067 67.0623 46.2283 67.0623 46.395C67.0623 46.5117 67.0939 46.6067 67.1573 46.68C67.2239 46.7533 67.3089 46.815 67.4123 46.865C67.5189 46.9117 67.6356 46.955 67.7623 46.995C67.8889 47.035 68.0156 47.0783 68.1423 47.125C68.2689 47.1717 68.3839 47.2317 68.4873 47.305C68.5939 47.3783 68.6789 47.4717 68.7423 47.585C68.8089 47.695 68.8423 47.8367 68.8423 48.01C68.8423 48.2667 68.7906 48.4717 68.6873 48.625C68.5873 48.7783 68.4506 48.89 68.2773 48.96C68.1039 49.0267 67.9056 49.06 67.6823 49.06Z" fill="url(#paint4_linear_422_1845)"/>
<defs>
<linearGradient id="paint0_linear_422_1845" x1="1" y1="3.67859" x2="68.9324" y2="77.6604" gradientUnits="userSpaceOnUse">
<stop offset="0.416047" stop-color="#007471"/>
<stop offset="0.494917" stop-color="#97FFC3"/>
<stop offset="0.569789" stop-color="#007471"/>
</linearGradient>
<linearGradient id="paint1_linear_422_1845" x1="5.14677" y1="0.999998" x2="72.8763" y2="73.9845" gradientUnits="userSpaceOnUse">
<stop offset="0.341299" stop-color="#007471"/>
<stop offset="0.477274" stop-color="#97FFC3"/>
<stop offset="0.691723" stop-color="#007471"/>
</linearGradient>
<linearGradient id="paint2_linear_422_1845" x1="36.3375" y1="11.4691" x2="49.3775" y2="29.5793" gradientUnits="userSpaceOnUse">
<stop offset="0.121189" stop-color="#007471"/>
<stop offset="0.569557" stop-color="#97FFC3"/>
<stop offset="0.905322" stop-color="#007471"/>
</linearGradient>
<linearGradient id="paint3_linear_422_1845" x1="37.9139" y1="33.1978" x2="37.9139" y2="40.1611" gradientUnits="userSpaceOnUse">
<stop stop-color="#FFF08E"/>
<stop offset="0.429267" stop-color="#FFE855"/>
<stop offset="1" stop-color="#FDE651"/>
</linearGradient>
<linearGradient id="paint4_linear_422_1845" x1="40" y1="45.2" x2="40" y2="50" gradientUnits="userSpaceOnUse">
<stop stop-color="#D4FFE6"/>
<stop offset="0.195861" stop-color="#BAF8D9"/>
<stop offset="0.398992" stop-color="#92EEC6"/>
<stop offset="0.622957" stop-color="#77DEBC"/>
<stop offset="0.810463" stop-color="#52C7AF"/>
<stop offset="1" stop-color="#009591"/>
</linearGradient>
</defs>
</svg>
